<svg preserveAspectRatio="none" data-bbox="6.3 98.088 187.4 3.824" viewBox="6.3 98.088 187.4 3.824" height="800" width="800" xmlns="http://www.w3.org/2000/svg" data-type="shape" role="img" fill="#FC9779">
    <g>
        <path d="M66.5 98.112l2.1 3.8h-.3l-2.1-3.8h.3zm1.3 0l2.1 3.8h.3l-2.1-3.8h-.3zm-.8 0l2.1 3.8h.3l-2.1-3.8H67zm-1.5 0l2.1 3.8h.3l-2.1-3.8h-.3zm-1.6 0l2.1 3.8h.3l-2.1-3.8h-.3zm.8 0l2.1 3.8h.3l-2.1-3.8h-.3zm7 0l2.1 3.8h.3l-2.1-3.8h-.3zm.8 0l2.1 3.8h.3l-2.1-3.8h-.3zm-3.9 0l2.1 3.8h.3l-2.1-3.8h-.3zm-5.5 0l2.1 3.8h.3l-2.1-3.8h-.3zm11 0l2.1 3.8h.3l-2.1-3.8h-.3zm-4.7 0l2.1 3.8h.3l-2.1-3.8h-.3zm.8 0l2.1 3.8h.3l-2.1-3.8h-.3zm.8 0l2.1 3.8h.3l-2.1-3.8H71zm2.3 0l2.1 3.8h.3l-2.1-3.8h-.3zm-18.1 0l2.1 3.8h.3l-2.1-3.8h-.3zm7.1 0l2.1 3.8h.3l-2.1-3.8h-.3zm-7.9 0l2.1 3.8h.3l-2.1-3.8h-.3zm-1.5 0l2.1 3.8h.3l-2.1-3.8h-.3zm-.8 0l2.1 3.8h.3l-2.1-3.8h-.3zm1.6 0l2.1 3.8h.3l-2.1-3.8h-.3zm3.1 0l2.1 3.8h.3l-2.1-3.8h-.3zm-.8 0l2.1 3.8h.3l-2.1-3.8H56zm4.7 0l2.1 3.8h.3l-2.1-3.8h-.3zm-3.1 0l2.1 3.8h.3l-2.1-3.8h-.3zm3.9 0l2.1 3.8h.3l-2.1-3.8h-.3zm-1.5 0l2.1 3.8h.3l-2.1-3.8H60zm-.8 0l2.1 3.8h.3l-2.1-3.8h-.3zm-.8 0l2.1 3.8h.3l-2.1-3.8h-.3zm34.6 0l2.1 3.8h.3l-2.1-3.8H93zm-2.4 0l2.1 3.8h.3l-2.1-3.8h-.3zm.8 0l2.1 3.8h.3l-2.1-3.8h-.3zm-1.6 0l2.1 3.8h.3l-2.1-3.8h-.3zm2.4 0l2.1 3.8h.3l-2.1-3.8h-.3zm-4.7 0l2.1 3.8h.3l-2.1-3.8h-.3zm.8 0l2.1 3.8h.3l-2.1-3.8h-.3zm.7 0l2.1 3.8h.3l-2.1-3.8H89zm4.8 0l2.1 3.8h.3l-2.1-3.8h-.3zm3.1 0l2.1 3.8h.3l-2.1-3.8h-.3zm.8 0l2.1 3.8h.3l-2.1-3.8h-.3zm-1.6 0l2.1 3.8h.3l-2.1-3.8h-.3zm-1.5 0l2.1 3.8h.3l-2.1-3.8h-.3zm-7.9 0l2.1 3.8h.3l-2.1-3.8h-.3zm-11.8 0l2.1 3.8h.3l-2.1-3.8h-.3zm20.4 0l2.1 3.8h.3l-2.1-3.8h-.3zm-44 0l2.1 3.8h.3l-2.1-3.8h-.3zm27.5 0l2.1 3.8h.3l-2.1-3.8h-.3zm-.8 0l2.1 3.8h.3l-2.1-3.8H78zm2.4 0l2.1 3.8h.3l-2.1-3.8h-.3zm-.8 0l2.1 3.8h.3l-2.1-3.8h-.3zm-3.9 0l2.1 3.8h.3l-2.1-3.8h-.3zm1.6 0l2.1 3.8h.3l-2.1-3.8h-.3zm-.8 0l2.1 3.8h.3l-2.1-3.8h-.3zm4.7 0l2.1 3.8h.3l-2.1-3.8h-.3zm3.1 0l2.1 3.8h.3l-2.1-3.8h-.3zm.8 0l2.1 3.8h.3l-2.1-3.8h-.3zm-1.6 0l2.1 3.8h.3l-2.1-3.8h-.3zm-1.5 0l2.1 3.8h.3l-2.1-3.8H82zm3.9 0l2.1 3.8h.3l-2.1-3.8h-.3zm-3.1 0l2.1 3.8h.3l-2.1-3.8h-.3zm-36.2 0l2.1 3.8h.3l-2.1-3.8h-.3zm-26 0l2.1 3.8h.3l-2.1-3.8h-.3zm-2.3 0l2.1 3.8h.3l-2.1-3.8h-.3zm1.5 0l2.1 3.8h.3l-2.1-3.8h-.3zm-.7 0l2.1 3.8h.3l-2.1-3.8h-.3zm-1.6 0l2.1 3.8h.3l-2.1-3.8h-.3zm-1.6 0l2.1 3.8h.3l-2.1-3.8h-.3zm-.8 0l2.1 3.8h.3l-2.1-3.8h-.3zm1.6 0l2.1 3.8h.3l-2.1-3.8h-.3zm7.9 0l2.1 3.8h.3l-2.1-3.8h-.3zm25.9 0l2.1 3.8h.3l-2.1-3.8h-.3zm-26.7 0l2.1 3.8h.3l-2.1-3.8h-.3zm-.8 0l2.1 3.8h.3l-2.1-3.8H23zm-1.6 0l2.1 3.8h.3l-2.1-3.8h-.3zm.8 0l2.1 3.8h.3l-2.1-3.8h-.3zm3.2 0l2.1 3.8h.3l-2.1-3.8h-.3zm-11.1 0l2.1 3.8h.3l-2.1-3.8h-.3zm-6.3 0l2.1 3.8h.3l-2.1-3.8H8zm-1.5 0l2.1 3.8h.3l-2.1-3.8h-.3zm-.2 3.7h.2l-.2-.4v.4zm2.5-3.7l2.1 3.8h.3l-2.1-3.8h-.3zm-2.5 2.5l.7 1.3h.3l-1-1.9v.6zm0-1.4l1.5 2.7h.3l-1.8-3.3v.6zm1-1.1l2.1 3.8h.3l-2.1-3.8h-.3zm5.5 0l2.1 3.8h.3l-2.1-3.8h-.3zm-3.2 0l2.1 3.8h.3l-2.1-3.8h-.3zm2.4 0l2.1 3.8h.3l-2.1-3.8H12zm1.6 0l2.1 3.8h.3l-2.1-3.8h-.3zm-2.4 0l2.1 3.8h.3l-2.1-3.8h-.3zm-.8 0l2.1 3.8h.3l-2.1-3.8h-.3zm15.7 0l2.1 3.8h.3l-2.1-3.8h-.3zm15.8 0l2.1 3.8h.3l-2.1-3.8h-.3zm3.1 0l2.1 3.8h.3l-2.1-3.8H45zm-.8 0l2.1 3.8h.3l-2.1-3.8h-.3zm-.8 0l2.1 3.8h.3l-2.1-3.8h-.3zm-3.9 0l2.1 3.8h.3l-2.1-3.8h-.3zm1.6 0l2.1 3.8h.3l-2.1-3.8h-.3zm-.8 0l2.1 3.8h.3l-2.1-3.8h-.3zm58.2 0l2.1 3.8h.3l-2.1-3.8h-.3zm-50.3 0l2.1 3.8h.3l-2.1-3.8h-.3zm-2.4 0l2.1 3.8h.3l-2.1-3.8h-.3zm3.9 0l2.1 3.8h.3l-2.1-3.8h-.3zm-.8 0l2.1 3.8h.3l-2.1-3.8h-.3zm-1.5 0l2.1 3.8h.3l-2.1-3.8h-.3zm-8.7 0l2.1 3.8h.3l-2.1-3.8h-.3zm-.8 0l2.1 3.8h.3l-2.1-3.8h-.3zm-7.8 0l2.1 3.8h.3l-2.1-3.8h-.3zm.8 0l2.1 3.8h.3l-2.1-3.8h-.3zm.7 0l2.1 3.8h.3l-2.1-3.8h-.3zm-2.3 0l2.1 3.8h.3l-2.1-3.8h-.3zm-1.6 0l2.1 3.8h.3l-2.1-3.8h-.3zm.8 0l2.1 3.8h.3l-2.1-3.8h-.3zm3.9 0l2.1 3.8h.3l-2.1-3.8h-.3zm4 0l2.1 3.8h.3l-2.1-3.8h-.3zm-.8 0l2.1 3.8h.3l-2.1-3.8h-.3zm-8.7 0l2.1 3.8h.3l-2.1-3.8h-.3zm10.2 0l2.1 3.8h.3l-2.1-3.8h-.3zm-3.1 0l2.1 3.8h.3l-2.1-3.8H34zm.8 0l2.1 3.8h.3l-2.1-3.8h-.3zm-1.6 0l2.1 3.8h.3l-2.1-3.8h-.3zm9.5 0l2.1 3.8h.3l-2.1-3.8h-.3zm128.1 0l2.1 3.8h.3l-2.1-3.8h-.3zm-7.1 0l2.1 3.8h.3l-2.1-3.8h-.3zm-1.5 0l2.1 3.8h.3l-2.1-3.8h-.3zm.8 0l2.1 3.8h.3l-2.1-3.8h-.3zm-1.6 0l2.1 3.8h.3l-2.1-3.8h-.3zm-1.6 0l2.1 3.8h.3l-2.1-3.8h-.3zm.8 0l2.1 3.8h.3l-2.1-3.8h-.3zm8.7 0l2.1 3.8h.3l-2.1-3.8h-.3zm-10.3 0l2.1 3.8h.3l-2.1-3.8h-.3zm11 0l2.1 3.8h.3l-2.1-3.8h-.3zm-1.5 0l2.1 3.8h.3l-2.1-3.8h-.3zm-3.2 0l2.1 3.8h.3l-2.1-3.8h-.3zm.8 0l2.1 3.8h.3l-2.1-3.8h-.3zm.8 0l2.1 3.8h.3l-2.1-3.8h-.3zm.8 0l2.1 3.8h.3l-2.1-3.8h-.3zm-3.2 0l2.1 3.8h.3l-2.1-3.8h-.3zm-14.1 0l2.1 3.8h.3l-2.1-3.8h-.3zm.8 0l2.1 3.8h.3l-2.1-3.8h-.3zm.8 0l2.1 3.8h.3l-2.1-3.8h-.3zm.7 0l2.1 3.8h.3l-2.1-3.8h-.3zm-4.7 0l2.1 3.8h.3l-2.1-3.8h-.3zm1.6 0l2.1 3.8h.3l-2.1-3.8h-.3zm8.6 0l2.1 3.8h.3l-2.1-3.8h-.3zm-9.4 0l2.1 3.8h.3l-2.1-3.8h-.3zm7.9 0l2.1 3.8h.3l-2.1-3.8h-.3zm.8 0l2.1 3.8h.3l-2.1-3.8h-.3zm-1.6 0l2.1 3.8h.3l-2.1-3.8h-.3zm-2.4 0l2.1 3.8h.3l-2.1-3.8h-.3zm.8 0l2.1 3.8h.3l-2.1-3.8h-.3zm.8 0l2.1 3.8h.3l-2.1-3.8h-.3zm29.1 0l2.1 3.8h.3l-2.1-3.8h-.3zm3.1 0l2.1 3.8h.3l-2.1-3.8h-.3zm.8 0l2.1 3.8h.3l-2.1-3.8h-.3zm-1.5 0l2.1 3.8h.3l-2.1-3.8h-.3zm-39.4 0l2.1 3.8h.3l-2.1-3.8h-.3zm38.6 0l2.1 3.8h.3l-2.1-3.8h-.3zm3.1 0l2.1 3.8h.3l-2.1-3.8h-.3zm-3.9 0l2.1 3.8h.3l-2.1-3.8h-.3zm4.7 0l2.1 3.8h.3l-2.1-3.8h-.3zm2.3 0l1.7 3v-.5l-1.4-2.5h-.3zm.8.1l.9 1.6v-.6l-.6-1h-.3zm-9.4-.1l2.1 3.8h.3l-2.1-3.8h-.3zm10.2 0l.1.2v-.2h-.1zm-3.1 0l2.1 3.8h.3l-2.1-3.8h-.3zm.8 0l2.1 3.8h.3l-2.1-3.8h-.3zm-18.1 0l2.1 3.8h.3l-2.1-3.8h-.3zm1.6 0l2.1 3.8h.3l-2.1-3.8h-.3zm.7 0l2.1 3.8h.3l-2.1-3.8h-.3zm.8 0l2.1 3.8h.3l-2.1-3.8h-.3zm6.3 0l2.1 3.8h.3l-2.1-3.8h-.3zm-5.5 0l2.1 3.8h.3l-2.1-3.8h-.3zm-5.5 0l2.1 3.8h.3l-2.1-3.8h-.3zm2.4 0l2.1 3.8h.3l-2.1-3.8h-.3zm-1.6 0l2.1 3.8h.3l-2.1-3.8h-.3zm8.6 0l2.1 3.8h.3l-2.1-3.8h-.3zm-3.1 0l2.1 3.8h.3l-2.1-3.8h-.3zm3.9 0l2.1 3.8h.3l-2.1-3.8h-.3zm-1.5 0l2.1 3.8h.3l-2.1-3.8h-.3zm-1.6 0l2.1 3.8h.3l-2.1-3.8h-.3zm.8 0l2.1 3.8h.3l-2.1-3.8h-.3zm-39.3 0l2.1 3.8h.3l-2.1-3.8h-.3zm-24.4 0l2.1 3.8h.3l-2.1-3.8h-.3zm.8 0l2.1 3.8h.3l-2.1-3.8h-.3zm-1.6 0l2.1 3.8h.3l-2.1-3.8h-.3zm-.8 0l2.1 3.8h.3l-2.1-3.8h-.3zm-1.6 0l2.1 3.8h.3l-2.1-3.8h-.3zm4.8 0l2.1 3.8h.3l-2.1-3.8h-.3zm-4 0l2.1 3.8h.3l-2.1-3.8h-.3zm6.3 0l2.1 3.8h.3l-2.1-3.8h-.3zm1.6 0l2.1 3.8h.3l-2.1-3.8h-.3zm-.8 0l2.1 3.8h.3l-2.1-3.8h-.3zm1.6 0l2.1 3.8h.3l-2.1-3.8h-.3zm-3.2 0l2.1 3.8h.3l-2.1-3.8h-.3zm-.8 0l2.1 3.8h.3l-2.1-3.8h-.3zm-6.3 0l2.1 3.8h.3l-2.1-3.8h-.3zm11.1 0l2.1 3.8h.3l-2.1-3.8h-.3zm-18.9 0l2.1 3.8h.3l-2.1-3.8h-.3zm-.8 0l2.1 3.8h.3l-2.1-3.8h-.3zm2.4 0l2.1 3.8h.3l-2.1-3.8h-.3zm-.8 0l2.1 3.8h.3l-2.1-3.8h-.3zm-4 0l2.1 3.8h.3l-2.1-3.8h-.3zm1.6 0l2.1 3.8h.3l-2.1-3.8h-.3zm-.8 0l2.1 3.8h.3l-2.1-3.8h-.3zm9.5 0l2.1 3.8h.3l-2.1-3.8h-.3zm-1.6 0l2.1 3.8h.3l-2.1-3.8h-.3zm.8 0l2.1 3.8h.3l-2.1-3.8h-.3zm-1.6 0l2.1 3.8h.3l-2.1-3.8h-.3zm-.8 0l2.1 3.8h.3l-2.1-3.8h-.3zm-.8 0l2.1 3.8h.3l-2.1-3.8h-.3zm-.8 0l2.1 3.8h.3l-2.1-3.8h-.3zm22.1 0l2.1 3.8h.3l-2.1-3.8h-.3zm12.5 0l2.1 3.8h.3l-2.1-3.8h-.3zm-41.6 0l2.1 3.8h.3l-2.1-3.8h-.3zm24.3 0l2.1 3.8h.3l-2.1-3.8h-.3zm15.8 0l2.1 3.8h.3l-2.1-3.8h-.3zm-3.2 0l2.1 3.8h.3l-2.1-3.8h-.3zm-.8 0l2.1 3.8h.3l-2.1-3.8h-.3zm1.6 0l2.1 3.8h.3l-2.1-3.8h-.3zm.8 0l2.1 3.8h.3l-2.1-3.8h-.3zm7.1 0l2.1 3.8h.3l-2.1-3.8h-.3zm.8 0l2.1 3.8h.3l-2.1-3.8h-.3zm-1.6 0l2.1 3.8h.3l-2.1-3.8h-.3zm-.8 0l2.1 3.8h.3l-2.1-3.8h-.3zm-.8 0l2.1 3.8h.3l-2.1-3.8h-.3zm-.8 0l2.1 3.8h.3l-2.1-3.8h-.3zm-3.1 0l2.1 3.8h.3l-2.1-3.8h-.3zm-11 0l2.1 3.8h.3l-2.1-3.8h-.3zm18.8 0l2.1 3.8h.3l-2.1-3.8h-.3zm-11.7 0l2.1 3.8h.3l-2.1-3.8h-.3zm-9.5 0l2.1 3.8h.3l-2.1-3.8h-.3zm-.8 0l2.1 3.8h.3l-2.1-3.8h-.3zm4.7 0l2.1 3.8h.3l-2.1-3.8h-.3zm-3.1 0l2.1 3.8h.3l-2.1-3.8h-.3zm.8 0l2.1 3.8h.3l-2.1-3.8h-.3zm3.1 0l2.1 3.8h.3l-2.1-3.8h-.3zm3.2 0l2.1 3.8h.3l-2.1-3.8h-.3zm.8 0l2.1 3.8h.3l-2.1-3.8h-.3zm-1.6 0l2.1 3.8h.3l-2.1-3.8h-.3zm-1.6 0l2.1 3.8h.3l-2.1-3.8h-.3zm.8 0l2.1 3.8h.3l-2.1-3.8h-.3zm-31.508-.024l2.1 3.8h.3l-2.1-3.8h-.3z">
        </path>
    </g>
</svg>